<svg width="143" height="24" viewBox="0 0 143 24" fill="none" xmlns="http://www.w3.org/2000/svg">
<g clip-path="url(#clip0_961_67)">
<path d="M129.652 19.6706V4.32812H132.524V10.487H140.611V4.32812H143.482V19.6706H140.611V13.2048H132.524V19.6706H129.652Z" fill="#1C1C1C"/>
<path d="M119.121 20C114.54 20 111.143 16.5589 111.143 11.9781C111.143 7.41918 114.496 4 119.033 4C123.701 4 125.893 6.54247 126.2 9.47945H123.307C122.956 8.1863 122.123 6.76164 119.055 6.76164C116.228 6.76164 114.014 8.69041 114.014 12C114.014 15.2877 116.206 17.2384 119.055 17.2384C122.277 17.2384 123.132 15.8137 123.504 14.5205H126.397C125.981 17.9397 123.658 20 119.121 20Z" fill="#1C1C1C"/>
<path d="M98.5332 19.6706V4.32812H109.229V7.0021H101.317V10.5089H108.681V13.1829H101.317V16.9966H109.339V19.6706H98.5332Z" fill="#1C1C1C"/>
<path d="M91.1691 19.6706H88.2979V7.0021H84.1992V4.32812H95.2677V7.0021H91.1691V19.6706Z" fill="#1C1C1C"/>
<path d="M74.7978 14.6076L71.5539 19.6706H68.332L73.7019 11.6487L68.6608 4.32812H71.9704L74.8197 8.90895C75.1485 9.45689 75.1046 10.224 75.1046 10.8596L75.5868 10.8815C75.6087 10.2459 75.5868 9.45689 75.9375 8.93087L78.9403 4.32812H82.206L77.0772 11.9336L82.5348 19.6706H79.2471L75.9375 14.5857C75.5868 14.0596 75.6087 13.2925 75.6087 12.6569H75.1046C75.1046 13.2925 75.1266 14.0596 74.7978 14.6076Z" fill="#1C1C1C"/>
<path d="M62.832 19.6706V4.32812H65.7033V19.6706H62.832Z" fill="#1C1C1C"/>
<path d="M47.7033 10.75V19.6706H44.832V4.32812H47.7033L54.695 13.5994C55.2649 14.3446 55.6156 15.55 55.9224 16.4487L56.4046 16.2952C56.0978 15.3966 55.6594 14.235 55.6594 13.2706V4.32812H58.5307V19.6706H55.6594L48.6676 10.4213C48.0759 9.65415 47.7252 8.47059 47.4183 7.55004L46.9581 7.72539C47.2649 8.62402 47.7033 9.78566 47.7033 10.75Z" fill="#1C1C1C"/>
<path d="M31.2892 4.32812L34.4673 9.12813C34.8837 9.78566 34.9276 10.7062 34.9276 11.4733H35.4317C35.4317 10.7062 35.4536 9.76374 35.8481 9.12813L38.9166 4.32812H41.9851L36.6371 12.4158V19.5172H33.7659V12.4158L28.2207 4.32812H31.2892Z" fill="#1C1C1C"/>
<path d="M23.4351 12.9857C24.3118 13.5117 24.7063 14.4542 25.057 15.835C25.2543 16.7117 26.2186 19.6706 26.2186 19.6706H23.2597C22.7775 17.7418 22.4049 16.3172 22.3392 16.0103C21.6378 13.5336 20.1036 13.7966 19.2926 13.7528C19.1392 13.7528 18.9638 13.7528 18.7666 13.7528C18.2406 13.7528 17.1227 13.7528 16.8597 13.7528V19.6706H14.0762V4.32812H19.5556C22.9967 4.32812 25.846 5.0295 25.846 8.62402C25.846 10.5966 24.8159 11.4733 23.4351 12.0651C22.7118 12.3939 21.6597 12.2624 20.8707 12.2624V12.7665C21.6597 12.7665 22.7775 12.5473 23.4351 12.9857ZM16.8597 6.23497V11.3857H19.3364C21.2433 11.3857 22.9748 10.6185 22.9748 8.66785C22.9748 6.73908 21.3748 6.23497 19.3364 6.23497H16.8597Z" fill="#1C1C1C"/>
<path d="M6.96986 19.6706H4.09863V7.0021H0V4.32812H11.0685V7.0021H6.96986V19.6706Z" fill="#1C1C1C"/>
</g>
<defs>
<clipPath id="clip0_961_67">
<rect width="143" height="24" fill="white"/>
</clipPath>
</defs>
</svg>
